<svg xmlns="http://www.w3.org/2000/svg" width="529.446" height="392.904" baseProfile="full" viewBox="0 0 569 422">

  <g stroke-linecap="square" stroke-miterlimit="10">
    <g fill="none" stroke="#d34724" stroke-linecap="round" stroke-linejoin="round" stroke-opacity=".698" stroke-width="2.5" clip-path="url(#clip1)">
      
      <path d="M454.63 219.65c0 80.84-65.53 146.37-146.37 146.37s-146.37-65.53-146.37-146.37S227.42 73.28 308.26 73.28s146.37 65.53 146.37 146.37"/>
      <desc>圆 c: 圆心为 C 且半径为 线段(D, C) 的圆</desc>
    </g>
    <g fill="none" stroke="#d34724" stroke-linecap="round" stroke-linejoin="round" stroke-opacity=".698" stroke-width="2.5" clip-path="url(#clip2)">
      <path d="M-5 366.01h580"/>
      <desc>直线 f: 直线 AB</desc>
    </g>
    <g fill="none" stroke="#d34724" stroke-dasharray="6.5000,4.0000" stroke-linecap="butt" stroke-linejoin="round" stroke-opacity=".698" stroke-width="2.5" clip-path="url(#clip3)">
      <path d="M56.027 366.01 308.26 219.65"/>
      <desc>线段 g: 线段OC</desc>
    </g>
    <g fill="#d34724" clip-path="url(#clip4)">
      <path d="M294.27 293v-11.45h5.07q1.54 0 2.33.31.8.3 1.27 1.08.48.78.48 1.73 0 1.22-.8 2.06-.78.83-2.43 1.05.61.3.92.58.66.61 1.25 1.52l2 3.12h-1.91l-1.51-2.39q-.67-1.03-1.11-1.58-.42-.55-.77-.76-.33-.22-.68-.3-.26-.06-.85-.06h-1.75V293zm1.51-6.41h3.25q1.05 0 1.63-.2.59-.22.89-.69.31-.48.31-1.03 0-.81-.59-1.33-.6-.53-1.86-.53h-3.63z"/>
      <desc>线段 R: 线段CD</desc>
    </g>
    <g fill="none" stroke="#d34724" stroke-dasharray="6.5000,4.0000" stroke-linecap="butt" stroke-linejoin="round" stroke-opacity=".698" stroke-width="2.5" clip-path="url(#clip5)">
      <path d="m308.26 219.65 1.69 146.36"/>
      <desc>线段 R: 线段CD</desc>
    </g>
    <g fill="#d34724" clip-path="url(#clip6)">
      <path d="M314.95 366.01c0 2.76-2.24 5-5 5s-5-2.24-5-5 2.24-5 5-5 5 2.24 5 5"/>
      <desc>点 D: f 上的点</desc>
    </g>
    <g fill="none" stroke="#d34724" stroke-linecap="round" stroke-linejoin="round" clip-path="url(#clip7)">
      <path d="M314.95 366.01c0 2.76-2.24 5-5 5s-5-2.24-5-5 2.24-5 5-5 5 2.24 5 5"/>
      <desc>点 D: f 上的点</desc>
    </g>
    <g fill="#d34724" clip-path="url(#clip8)">
      <path d="M313.26 219.65c0 2.76-2.24 5-5 5s-5-2.24-5-5 2.24-5 5-5 5 2.24 5 5"/>
      <desc>C = (0.85, 1.28)</desc>
    </g>
    <g fill="none" stroke="#d34724" stroke-linecap="round" stroke-linejoin="round" clip-path="url(#clip9)">
      <path d="M313.26 219.65c0 2.76-2.24 5-5 5s-5-2.24-5-5 2.24-5 5-5 5 2.24 5 5"/>
      <desc>C = (0.85, 1.28)</desc>
    </g>
    <g fill="#d34724" clip-path="url(#clip10)">
      <path d="m321.41 205.98 1.51.38q-.47 1.87-1.72 2.86-1.23.98-3.01.98-1.86 0-3.02-.75-1.15-.76-1.76-2.18-.61-1.44-.61-3.08 0-1.8.68-3.13.69-1.33 1.94-2.01 1.27-.71 2.78-.71 1.72 0 2.89.88 1.18.87 1.64 2.47l-1.5.34q-.39-1.25-1.15-1.81-.75-.58-1.91-.58-1.31 0-2.2.64-.89.63-1.25 1.7t-.36 2.19q0 1.47.42 2.56.44 1.08 1.33 1.63.91.53 1.95.53 1.27 0 2.14-.73.89-.74 1.21-2.18"/>
      <desc>C = (0.85, 1.28)</desc>
    </g>
    <g fill="#d34724" clip-path="url(#clip11)">
      <path d="M61.027 366.01a5 5 0 1 1-10.001-.001 5 5 0 0 1 10.001.001"/>
      <desc>点 O: f 上的点</desc>
    </g>
    <g fill="none" stroke="#d34724" stroke-linecap="round" stroke-linejoin="round" clip-path="url(#clip12)">
      <path d="M61.027 366.01a5 5 0 1 1-10.001-.001 5 5 0 0 1 10.001.001"/>
      <desc>点 O: f 上的点</desc>
    </g>
    <g fill="#d34724" clip-path="url(#clip13)">
      <path d="M60.781 350.42q0-2.86 1.531-4.47 1.532-1.61 3.954-1.61 1.578 0 2.843.77 1.282.75 1.953 2.11.672 1.34.672 3.06 0 1.75-.703 3.13-.703 1.37-2 2.09-1.281.7-2.781.7-1.609 0-2.891-.78-1.265-.8-1.921-2.14-.657-1.36-.657-2.86m1.563.02q0 2.08 1.109 3.26 1.109 1.19 2.797 1.19 1.703 0 2.812-1.2 1.11-1.21 1.11-3.41 0-1.4-.484-2.44-.469-1.04-1.376-1.62t-2.046-.58q-1.61 0-2.766 1.11t-1.156 3.69"/>
      <desc>点 O: f 上的点</desc>
    </g>
    <g fill="#d34724" clip-path="url(#clip14)" transform="matrix(.19 0 0 .19 334 43.189)">
      <path d="M91-23H14.094q6.812 5 10.203 12.906.609 1.297.609 1.688 0 1.203-1.5 1.203-1.109 0-1.703-1.39-4.297-9.313-12.5-13.907l-2.297-1.203Q5.703-24.406 5.703-25t1-1.203q-.203.109.39-.203 10.11-4.797 14.704-15.391.5-1 1.609-1 1.5 0 1.5 1.203 0 1.5-2.906 6-3.297 5.188-7.906 8.594H91q3 .5 3.297 2 0 2-3.297 2"/>
      <desc>text1 = “\leftarrow \omega_0”</desc>
    </g>
    <g fill="#d34724" clip-path="url(#clip15)" transform="matrix(.19 0 0 .19 358.28 43.189)">
      <path d="M26.406-8.203q-6.312 9.297-14.5 9.297-8.703 0-10.312-10-.297-2-.297-4.188 0-8.906 3.797-18 3.11-7.109 6.109-10.812 1-1.188 1.5-1.188 1.203 0 1.203 1.188 0 .5-1 1.906Q4.5-28 4.5-17.5q0 9.5 6.406 11.094 1.094.312 2.391.312 6.797 0 12.406-7.703.703-.703.891-2.703 1-7.297 2.109-10.094 1.297-2.5 2.797-2.5 1.906 0 2.094 2.297 0 2.797-2.797 10-.203.703-.5 1.297-.594 1.094-.594 1.594 0 2.812 2 5.5 1.797 2.312 5.5 2.312 7.703 0 13.891-8.312 5.109-7 5.109-13.594 0-5.094-3.5-8.703-1.5-1.297-1.5-2.703 0-2.5 2.703-4.094 1.094-.703 2.297-.703 3.703 0 4.203 5.406.094 1.094.094 1.703 0 6.391-3 15.797-2.5 7.703-6.406 13.094-6.797 9.297-15.297 9.297-8.094 0-9.391-9.297"/>
      <desc>text1 = “\leftarrow \omega_0”</desc>
    </g>
    <g fill="#d34724" clip-path="url(#clip16)" transform="translate(370.1 46.039)scale(.133)">
      <path d="M46-32q0 14.594-3.703 22.594-5.891 11.203-17.391 11.61-9.109 0-14.609-7.204-1.094-1.297-1.89-2.906-4.5-8.297-4.5-24.094 0-14.703 3.687-22.703 5-11.203 16.203-11.891H25q8.906 0 14.5 7.094v.094q1.406 1.812 2.5 4 4 8.5 4 23.406M24.906 0q6.297 0 9.688-6.094 1.406-2.703 2-6.406 1.109-6.406 1.109-20.703 0-13.891-1-19.5-1.797-9.5-9.203-11.391-1.297-.312-2.594-.312-7 0-10.203 7Q13.594-55 13-51.594q-.797 5.391-.797 18.391 0 15.109 1.094 21.109Q15.094-2.5 22.094-.406 23.5 0 24.906 0"/>
      <desc>text1 = “\leftarrow \omega_0”</desc>
    </g>
    <g fill="#d34724" clip-path="url(#clip17)" transform="matrix(.19 0 0 .19 331 219.19)">
      <path d="M85.797-23H8.907q-3-.5-3.313-2 0-2 3.312-2h76.891Q79-32 75.594-39.906L75.5-40q-.5-1.297-.5-1.594 0-1.203 1.5-1.203 1.094 0 1.703 1.391 4.391 9.906 13.594 14.609h.109l.094.094h.094q.703.406 1.406.703.406 0 .703 1 0 .703-.906 1.203-.203 0-.5.203-9.891 4.688-14.5 15-.094.094-.203.39-.5 1-1.594 1-1.5 0-1.5-1.202 0-1.5 2.906-6 3.297-5.188 7.891-8.594"/>
      <desc>text2 = “\rightarrow v_{c0} ”</desc>
    </g>
    <g fill="#d34724" clip-path="url(#clip18)" transform="matrix(.19 0 0 .19 355.28 219.19)">
      <path d="M46.797-37.203q0 5.5-3 15.406Q38-2.407 27.703.593q-1.609.5-3.406.5-9.094 0-12.094-6.296-1.297-2.594-1.297-6.094 0-5.203 4.594-17.609l1.094-2.891q1.703-4.406 1.703-7 0-3.203-2.5-3.203-5.391 0-8.89 8.906-.704 1.594-1.204 3.5-1.11 1.688-1.61 1.797-1.187 0-1.187-1 0-1.797 2.188-6.297 4.312-9.109 11-9.109 5.312 0 7.406 4.5.797 1.703.797 3.703 0 2.094-1.203 5-5.391 14.406-5.797 19.906v1.297q0 8 6.406 8.703h1q8.094 0 14-13.609 3.5-8 3.797-13.5 0-5-3.406-8.203-1.594-1.594-1.594-3 0-2.5 2.594-4.094 1.109-.703 2.312-.703 2.891 0 4 3.703.391 1.406.391 3.297"/>
      <desc>text2 = “\rightarrow v_{c0} ”</desc>
    </g>
    <g fill="#d34724" clip-path="url(#clip19)" transform="translate(364.49 222.04)scale(.133)">
      <path d="M39.594-38Q36.797-41.594 31-42q-6.5 0-11.797 6.594-1.297 1.609-2.297 3.406-4 7.297-5.203 17.203Q11.5-13.203 11.5-12q0 8.203 5.594 10.297 1.406.61 3.406.61 9 0 16.203-6Q38.797-8.798 40.5-11q.703-1 1.297-1 .906 0 1.203 1.297 0 1.11-3.406 4.297-8.297 7.5-19.297 7.5-9.5 0-13.797-7.594-2.406-4.094-2.406-9.297 0-10.203 7.812-18.906 7.688-8.594 17.188-9.391.906-.109 1.812-.109 7.688 0 10.688 4.703 1.109 1.797 1.109 3.906 0 4.391-3.5 6-1 .391-2.109.391-3 0-3.594-2.594-.094-.406-.094-.906 0-2.203 1.797-3.891Q36.594-38 39.594-38"/>
      <desc>text2 = “\rightarrow v_{c0} ”</desc>
    </g>
    <g fill="#d34724" clip-path="url(#clip20)" transform="translate(370.25 222.04)scale(.133)">
      <path d="M46-32q0 14.594-3.703 22.594-5.891 11.203-17.391 11.61-9.109 0-14.609-7.204-1.094-1.297-1.89-2.906-4.5-8.297-4.5-24.094 0-14.703 3.687-22.703 5-11.203 16.203-11.891H25q8.906 0 14.5 7.094v.094q1.406 1.812 2.5 4 4 8.5 4 23.406M24.906 0q6.297 0 9.688-6.094 1.406-2.703 2-6.406 1.109-6.406 1.109-20.703 0-13.891-1-19.5-1.797-9.5-9.203-11.391-1.297-.312-2.594-.312-7 0-10.203 7Q13.594-55 13-51.594q-.797 5.391-.797 18.391 0 15.109 1.094 21.109Q15.094-2.5 22.094-.406 23.5 0 24.906 0"/>
      <desc>text2 = “\rightarrow v_{c0} ”</desc>
    </g>
    <g fill="#d34724" clip-path="url(#clip21)" transform="matrix(.19 0 0 .19 469 323.19)">
      <path d="m23.094-35.094-4.188 16.797q-1.406 5.594-1.406 8.5.5 8.39 7.406 8.703 6.797 0 11.891-7.61 1-1.593 1.109-1.999.797-2.5 2.594-10.203l4.703-18.688q.797-3.5 3.891-3.5 2.5.5 2.906 2.688 0-.188-1.5 6.703-1.406 5.109-1.703 6.797L46-16.094q-2 8.688-2 10.39 0 4.61 3 4.61 3.797 0 6.406-8 .5-1.703 1.188-4.406.812-1.703 1.406-1.797 1.203 0 1.203 1 0 1.5-1.797 7-.609 1.703-1.203 2.89-2.797 5.5-7.406 5.5-5.5 0-8-4.593-.703-1.203-1-2.703Q33.094-.703 28.5.594q-1.906.5-4 .5-6 0-9.703-3.094-5.094 20.5-5.5 21.5-1.39 2.094-3.5 2.094-2.297 0-2.703-2.094Q3 19.203 3 18.906q0-.406.297-1.609l14.406-57.891q.891-3.5 4-3.609 2.594 0 2.891 2.703 0 .094-1.5 6.406"/>
      <desc>text3 = “\mu”</desc>
    </g>
  </g>
</svg>